<svg width="466" height="466" viewBox="0 0 466 466" fill="none" xmlns="http://www.w3.org/2000/svg">
<path d="M455 28.5417V111.979C455 116.897 453.047 121.613 449.569 125.09C446.092 128.567 441.376 130.521 436.458 130.521C431.541 130.521 426.825 128.567 423.347 125.09C419.87 121.613 417.917 116.897 417.917 111.979V47.0833H353.021C348.103 47.0833 343.387 45.1298 339.91 41.6526C336.433 38.1754 334.479 33.4592 334.479 28.5417C334.479 23.6241 336.433 18.908 339.91 15.4307C343.387 11.9535 348.103 10 353.021 10H436.458C441.376 10 446.092 11.9535 449.569 15.4307C453.047 18.908 455 23.6241 455 28.5417ZM436.458 334.479C431.541 334.479 426.825 336.433 423.347 339.91C419.87 343.387 417.917 348.103 417.917 353.021V417.917H353.021C348.103 417.917 343.387 419.87 339.91 423.347C336.433 426.825 334.479 431.541 334.479 436.458C334.479 441.376 336.433 446.092 339.91 449.569C343.387 453.047 348.103 455 353.021 455H436.458C441.376 455 446.092 453.047 449.569 449.569C453.047 446.092 455 441.376 455 436.458V353.021C455 348.103 453.047 343.387 449.569 339.91C446.092 336.433 441.376 334.479 436.458 334.479ZM111.979 417.917H47.0833V353.021C47.0833 348.103 45.1298 343.387 41.6526 339.91C38.1754 336.433 33.4592 334.479 28.5417 334.479C23.6241 334.479 18.908 336.433 15.4307 339.91C11.9535 343.387 10 348.103 10 353.021V436.458C10 441.376 11.9535 446.092 15.4307 449.569C18.908 453.047 23.6241 455 28.5417 455H111.979C116.897 455 121.613 453.047 125.09 449.569C128.567 446.092 130.521 441.376 130.521 436.458C130.521 431.541 128.567 426.825 125.09 423.347C121.613 419.87 116.897 417.917 111.979 417.917ZM28.5417 130.521C33.4592 130.521 38.1754 128.567 41.6526 125.09C45.1298 121.613 47.0833 116.897 47.0833 111.979V47.0833H111.979C116.897 47.0833 121.613 45.1298 125.09 41.6526C128.567 38.1754 130.521 33.4592 130.521 28.5417C130.521 23.6241 128.567 18.908 125.09 15.4307C121.613 11.9535 116.897 10 111.979 10H28.5417C23.6241 10 18.908 11.9535 15.4307 15.4307C11.9535 18.908 10 23.6241 10 28.5417V111.979C10 116.897 11.9535 121.613 15.4307 125.09C18.908 128.567 23.6241 130.521 28.5417 130.521Z" fill="#4D4D4D"/>
<mask id="mask0_301_30" style="mask-type:alpha" maskUnits="userSpaceOnUse" x="77" y="88" width="310" height="289">
<path d="M109.318 373.811C106.246 375.342 102.861 376.135 99.4293 376.127C95.3297 376.116 91.3143 374.962 87.8325 372.796C84.3506 370.629 81.5397 367.535 79.7144 363.86C77.8891 360.185 77.1213 356.074 77.4971 351.987C77.873 347.9 79.3776 343.998 81.8424 340.719C101.432 314.471 127.54 293.811 157.574 280.792C141.127 265.759 129.605 246.099 124.518 224.392C119.432 202.686 121.019 179.947 129.072 159.159C137.124 138.372 151.266 120.508 169.641 107.911C188.016 95.314 209.765 88.5732 232.035 88.5732C254.305 88.5732 276.054 95.314 294.429 107.911C312.804 120.508 326.946 138.372 334.998 159.159C343.051 179.947 344.638 202.686 339.552 224.392C334.465 246.099 322.943 265.759 306.496 280.792C336.509 293.819 362.598 314.478 382.172 340.719C385.694 345.411 387.211 351.311 386.387 357.122C385.564 362.933 382.469 368.179 377.783 371.705C373.096 375.231 367.203 376.749 361.399 375.925C355.594 375.1 350.355 372.002 346.833 367.31C333.46 349.458 316.12 334.969 296.185 324.99C276.25 315.011 254.268 309.816 231.98 309.816C209.692 309.816 187.71 315.011 167.775 324.99C147.84 334.969 130.499 349.458 117.127 367.31C115.064 370.055 112.39 372.281 109.318 373.811Z" fill="black"/>
</mask>
<g mask="url(#mask0_301_30)">
<rect width="197.228" height="379.186" transform="matrix(-1 0 0 1 428.597 56.7627)" fill="#131313"/>
<path d="M195.138 254.382C206.034 261.671 218.845 265.562 231.95 265.562C249.524 265.562 266.378 258.572 278.804 246.131C291.231 233.69 298.212 216.817 298.212 199.222C298.212 186.102 294.326 173.276 287.045 162.366C279.764 151.457 269.415 142.954 257.308 137.933C245.2 132.912 231.877 131.598 219.023 134.158C206.17 136.717 194.363 143.035 185.097 152.313C175.83 161.591 169.519 173.412 166.962 186.28C164.406 199.149 165.718 212.487 170.733 224.609C175.748 236.731 184.241 247.092 195.138 254.382Z" fill="#E8FF1A"/>
</g>
<mask id="mask1_301_30" style="mask-type:alpha" maskUnits="userSpaceOnUse" x="77" y="88" width="310" height="289">
<path d="M354.693 373.811C357.764 375.342 361.15 376.135 364.581 376.127C368.681 376.116 372.696 374.962 376.178 372.796C379.66 370.629 382.471 367.535 384.296 363.86C386.122 360.185 386.889 356.074 386.514 351.987C386.138 347.9 384.633 343.998 382.168 340.719C362.579 314.471 336.47 293.811 306.437 280.792C322.883 265.759 334.406 246.099 339.492 224.392C344.579 202.686 342.992 179.947 334.939 159.159C326.886 138.372 312.745 120.508 294.37 107.911C275.995 95.314 254.246 88.5732 231.976 88.5732C209.706 88.5732 187.956 95.314 169.582 107.911C151.207 120.508 137.065 138.372 129.013 159.159C120.96 179.947 119.373 202.686 124.459 224.392C129.546 246.099 141.068 265.759 157.514 280.792C127.501 293.819 101.413 314.478 81.8384 340.719C78.3163 345.411 76.8002 351.311 77.6234 357.122C78.4467 362.933 81.5419 368.179 86.2282 371.705C90.9145 375.231 96.808 376.749 102.612 375.925C108.416 375.1 113.656 372.002 117.178 367.31C130.551 349.458 147.891 334.969 167.826 324.99C187.761 315.011 209.743 309.816 232.031 309.816C254.319 309.816 276.301 315.011 296.236 324.99C316.171 334.969 333.511 349.458 346.884 367.31C348.947 370.055 351.621 372.281 354.693 373.811Z" fill="black"/>
</mask>
<g mask="url(#mask1_301_30)">
<rect x="35.4141" y="56.7627" width="197.228" height="379.186" fill="white"/>
<path d="M268.873 254.382C257.976 261.671 245.166 265.562 232.06 265.562C214.487 265.562 197.633 258.572 185.206 246.131C172.78 233.69 165.799 216.817 165.799 199.222C165.799 186.102 169.685 173.276 176.966 162.366C184.247 151.457 194.595 142.954 206.703 137.933C218.811 132.912 232.134 131.598 244.987 134.158C257.841 136.717 269.647 143.035 278.914 152.313C288.181 161.591 294.492 173.412 297.049 186.28C299.605 199.149 298.293 212.487 293.278 224.609C288.263 236.731 279.77 247.092 268.873 254.382Z" fill="#E8FF1A"/>
</g>
</svg>
